<?xml version="1.0" encoding="UTF-8"?>
<svg width="100%" height="100%" version="1.1" viewBox="0 0 512 512" xmlns="http://www.w3.org/2000/svg">
 <g fill="current">
  <path d="m256 0c-33.617 0-66.906 6.6211-97.965 19.488-31.062 12.863-59.281 31.719-83.055 55.492-23.773 23.773-42.629 51.992-55.492 83.055-12.867 31.059-19.488 64.348-19.488 97.965 0 67.895 26.973 133.01 74.98 181.02 48.012 48.008 113.12 74.98 181.02 74.98s133.01-26.973 181.02-74.98c48.008-48.008 74.98-113.12 74.98-181.02s-26.973-133.01-74.98-181.02c-48.008-48.008-113.12-74.98-181.02-74.98zm0 28.91c29.492 0 58.695 5.875 85.941 17.289 27.246 11.41 52.004 28.137 72.855 49.227 20.855 21.086 37.395 46.121 48.684 73.672 11.285 27.551 17.094 57.082 17.094 86.902 0 60.227-23.66 117.99-65.777 160.57-42.113 42.59-99.234 66.512-158.8 66.516-29.488 0-58.691-5.875-85.941-17.289-27.246-11.41-52-28.137-72.855-49.227-20.852-21.086-37.395-46.121-48.68-73.672-11.289-27.551-17.098-57.078-17.098-86.902 0-29.82 5.8086-59.352 17.094-86.902 11.289-27.551 27.828-52.586 48.684-73.672 20.852-21.09 45.609-37.816 72.855-49.23 27.25-11.41 56.453-17.285 85.941-17.285z"/>
  <path d="m335 258.42-6.1797-2.6875c-2.957-1.0742-5.375-1.8828-7.793-1.8828-4.3008 0-7.793 3.2227-13.434 13.973-1.3438 2.957-2.1484 5.9102-2.1484 8.0625 0 7.2539 7.2539 11.016 13.973 13.168 12.359 5.1055 18.539 17.195 19.078 30.094 0 34.66-35.469 35.738-43.262 35.738h-1.6133c-3.2227 0-6.7188-0.26953-9.9414-0.80469-1.0742 0-1.8828 0-2.6875-0.26953 2.6875-10.746 2.6875-22.57 2.6875-35.738 0-33.586 0-61.801-40.574-70.938 26.332-6.7188 30.094-22.57 30.094-45.68 0-6.4492-2.957-75.504-11.824-77.652h-1.3438c-6.9844 0-18.273 12.359-27.945 26.602-6.7188-0.80469-14.508-1.0742-23.375-1.0742-9.1367 0-16.93 0.26953-23.375 1.0742-9.4062-14.242-21.496-26.602-28.215-26.602-10.211 2.1484-12.898 70.938-12.898 77.652 0 23.914 3.2227 39.5 30.633 45.68-39.5 9.4062-39.5 37.617-39.5 70.938 0 41.109 0 74.43 73.891 74.43 23.109 0 39.23-3.2227 50.246-9.1367 10.211 4.3008 22.035 6.1797 33.32 6.1797h2.957c22.57 0 77.117-11.016 77.117-70.938 0.26953-40.84-32.242-57.77-37.887-60.188zm-155.84-39.766c-10.211 0-10.211-4.3008-10.211-9.9414 0-5.6445 0-10.211 10.211-10.211 9.9414 0 9.9414 4.8359 9.9414 10.211 0 5.3711 0 9.9414-9.9414 9.9414zm50.516-9.6758c0-5.375 0-9.9414 9.9414-9.9414 10.211 0 10.211 4.3008 10.211 9.9414 0 5.6445 0 10.211-10.211 10.211-9.9414 0-9.9414-4.8359-9.9414-10.211z"/>
 </g>
</svg>
