<?xml version="1.0" encoding="UTF-8"?>
<svg width="100%" height="100%" version="1.1" viewBox="0 0 512 512" xmlns="http://www.w3.org/2000/svg">
 <path d="m498.69 292.35-40.961-121.34c-0.51172-1.5352-1.5352-3.0703-2.5586-4.0977l-78.848-67.582c-3.0703-2.5586-7.168-3.0703-10.754-1.0234l-69.121 38.398-51.711-80.895c-2.5586-3.5859-7.168-5.1211-11.266-3.5859l-72.703 30.207c-2.5586 1.0234-4.0977 3.0703-5.1211 5.1211l-28.16 74.754-40.445-8.7031c-4.0977-1.0234-8.7031 1.0234-10.238 5.1211l-62.977 128c-1.0234 1.5352-1.0234 3.5859-1.0234 5.6328l25.602 159.74c0.51172 4.6094 4.6094 7.6797 9.2148 7.6797h418.82c4.6094 0 8.7031-3.5859 9.2148-7.6797l23.551-155.65c0-1.0195 0-2.5586-0.51172-4.0938zm-121.86 100.86c-0.51172 9.2148-7.6797 16.895-16.895 16.895h-205.31c-7.168 0-13.312-5.1211-14.848-11.777-3.5859-15.871-8.1914-46.078-0.51172-73.727 19.969-72.191 20.48 16.895 30.719 16.895 11.777 0 6.6562-58.367 10.754-65.535 23.039-43.008 15.871 32.258 26.625 32.258 10.238 0 10.754-75.777 29.695-75.777 18.434 0 13.312 60.414 27.137 60.414 14.848 0 8.7031-81.406 43.52-43.008 12.801 14.336 8.1914 78.336 17.406 78.336 15.871 0 11.266-64.512 31.23-26.113 24.062 47.621 20.992 64.52 20.48 91.141z" fill="current"/>
</svg>
