<?xml version="1.0" encoding="UTF-8"?>
<svg width="100%" height="100%" version="1.1" viewBox="0 0 512 512" xmlns="http://www.w3.org/2000/svg">
 <defs>
  <clipPath id="a">
   <path d="m94.781 134h322.44v244h-322.44z"/>
  </clipPath>
 </defs>
 <path d="m256 0c-33.617 0-66.906 6.6211-97.965 19.488-31.062 12.863-59.281 31.719-83.055 55.492-23.773 23.773-42.629 51.992-55.492 83.055-12.867 31.059-19.488 64.348-19.488 97.965 0 67.895 26.973 133.01 74.98 181.02 48.012 48.008 113.12 74.98 181.02 74.98s133.01-26.973 181.02-74.98c48.008-48.008 74.98-113.12 74.98-181.02s-26.973-133.01-74.98-181.02c-48.008-48.008-113.12-74.98-181.02-74.98zm0 28.91c29.492 0 58.695 5.875 85.941 17.289 27.246 11.41 52.004 28.137 72.855 49.227 20.855 21.086 37.395 46.121 48.684 73.672 11.285 27.551 17.094 57.082 17.094 86.902 0 60.227-23.66 117.99-65.777 160.57-42.113 42.59-99.234 66.512-158.8 66.516-29.488 0-58.691-5.875-85.941-17.289-27.246-11.41-52-28.137-72.855-49.227-20.852-21.086-37.395-46.121-48.68-73.672-11.289-27.551-17.098-57.078-17.098-86.902 0-29.82 5.8086-59.352 17.094-86.902 11.289-27.551 27.828-52.586 48.684-73.672 20.852-21.09 45.609-37.816 72.855-49.23 27.25-11.41 56.453-17.285 85.941-17.285z" fill="current"/>
 <g clip-path="url(#a)">
  <path d="m255.11 306.33c16.734-0.11328 26.434-6.5156 29.477-23.004 2.8047-15.203-18.508-19.508-29.477-19.621-10.969 0.11328-32.281 4.418-29.477 19.621 3.043 16.488 12.75 22.891 29.477 23.004zm-0.035156 26.922c-7.9141 18.812-22.605 12.094-29.863 1.2734 11.344 7.0742 21.211 13.875 27.148-12.469 3.2227-3.4727 2.2031-3.4727 5.4375 0 5.9375 26.352 15.805 19.551 27.148 12.469-7.2539 10.809-21.961 17.543-29.871-1.2734zm-69.512-31.68c22.074 31.711-1.5781 58.43 27.465 72.805 6.9492 3.4297 13.988 7.4727 18.324-4.5312 7.6523 8.0508 16.84 8.0742 23.754 8.0508 6.9141 0.023437 16.102 0 23.754-8.0508 4.3359 12 11.379 7.9609 18.324 4.5312 29.043-14.375 5.3828-41.09 27.465-72.805-29.781 26.707-7.8555 50.879-29.387 61.473-10.898 5.3594-1.1133-18.461-18.27-18.461 10.254 4.4609 1.7812 35.664-21.879 24.707-23.664 10.957-32.133-20.246-21.879-24.707-17.168 0-7.3672 23.832-18.27 18.461-21.527-10.605 0.39844-34.777-29.387-61.473zm132.56-85.848c-0.10156 16.352-17.609 15-20.461 3.0312-2.6797 8.1523 3.8594 12.957 11.344 11.742 6.4844-1.0547 12.137-6.9844 9.1172-14.773zm-14.93 4.5547c-1.1914 0-2.1562 0.96484-2.1562 2.1562s0.96484 2.1562 2.1562 2.1562c1.1914 0 2.1562-0.96484 2.1562-2.1562s-0.96484-2.1562-2.1562-2.1562zm9.3438-5.6992c-2.0078 0-3.6328 1.625-3.6328 3.6328 0 2.0078 1.625 3.6328 3.6328 3.6328 2.0078 0 3.6328-1.625 3.6328-3.6328 0-2.0078-1.625-3.6328-3.6328-3.6328zm3.9961 16.008c-13.352 8.8438-20.539-3.543-25.625-7.3594 3.9062-14.613 18.984-16.59 28.965-13.297 0.78516 0.25-7.1641-18.723-28.965 0.22656 21.836-24.641 30.84-6.9492 36.902 4.8594-2.8828 4.5625-7.0391 12.75-11.273 15.555zm88.652 16.758c0.023438-13.852-28.238-48.141-37.094-61.996-21.801-34.098-39.648-40.16-47.848-51.266 21.949 5.7109 36.492 14.262 45.168 35.152 12.5 30.102 51.891 56.543 51.809 79.91-0.078124 25.059-38.684 18.633-45.699 59.586-1.9883 11.594-8.1992 39.523-20.016 20.008-31.203-51.527 17.848-106.06-24.254-177.43 51.23 54.434 5.3477 154.52 29.828 162.86 11.707-40.613 49.086-50.445 48.121-66.82zm-104.15 39.07c-1.4062-26.535-18.621-42.328-28.363-61.223-8.5391-16.52-9.1875-39.613 11.945-46.02-26.738 43.293-7.5273 32.996 12.945 76.141 4.2578 8.9688 8.7188 20.199 3.4727 31.109zm-107.15-70.668c0.10156 16.352 17.609 15 20.461 3.0312 2.6797 8.1523-3.8594 12.957-11.344 11.742-6.4844-1.0547-12.137-6.9844-9.1172-14.773zm14.93 4.5547c1.1914 0 2.1562 0.96484 2.1562 2.1562 0 1.1914-0.96484 2.1562-2.1562 2.1562-1.1914 0-2.1562-0.96484-2.1562-2.1562 0-1.1914 0.96484-2.1562 2.1562-2.1562zm-9.3438-5.6992c2.0078 0 3.6328 1.625 3.6328 3.6328 0 2.0078-1.625 3.6328-3.6328 3.6328-2.0078 0-3.6328-1.625-3.6328-3.6328 0-2.0078 1.625-3.6328 3.6328-3.6328zm-3.9961 16.008c13.352 8.8438 20.539-3.543 25.625-7.3594-3.9062-14.613-18.984-16.59-28.965-13.297-0.78516 0.25 7.1641-18.723 28.965 0.22656-21.836-24.641-30.84-6.9492-36.902 4.8594 2.8828 4.5625 7.0391 12.75 11.273 15.555zm13.738 55.816c2.125-28.191 19.984-44.359 28.918-62.312 8.1523-16.363 7.9922-38.73-12.5-44.941 26.738 43.305 7.5508 32.984-12.945 76.141-4.2578 8.9688-8.7305 20.199-3.4727 31.109zm-102.39-39.07c-0.023438-13.852 28.238-48.141 37.094-61.996 21.801-34.098 39.648-40.16 47.848-51.266-21.949 5.7109-36.492 14.262-45.168 35.152-12.5 30.102-51.891 56.543-51.809 79.91 0.078126 25.059 38.684 18.633 45.699 59.586 1.9883 11.594 8.1992 39.523 20.016 20.008 31.203-51.527-17.848-106.06 24.254-177.43-51.23 54.434-5.3477 154.52-29.828 162.86-11.707-40.613-49.086-50.445-48.121-66.82zm139.64 39.82c10.434 1.5312-6.1523 16.906-14.852 7.3008 8.6758 1.4297 4.1562-7.1523 14.852-7.3008zm17.305 0c-10.434 1.5312 6.1523 16.906 14.852 7.3008-8.6641 1.4297-4.1445-7.1523-14.852-7.3008z" fill="current" fill-rule="evenodd"/>
 </g>
</svg>
