<?xml version="1.0" encoding="UTF-8"?>
<svg width="100%" height="100%" version="1.1" viewBox="0 0 512 512" xmlns="http://www.w3.org/2000/svg">
 <defs>
  <clipPath id="b">
   <path d="m94.781 120h111.22v193h-111.22z"/>
  </clipPath>
  <clipPath id="a">
   <path d="m306 120h111.22v193h-111.22z"/>
  </clipPath>
 </defs>
 <path d="m256 0c-33.617 0-66.906 6.6211-97.965 19.488-31.062 12.863-59.281 31.719-83.055 55.492-23.773 23.773-42.629 51.992-55.492 83.055-12.867 31.059-19.488 64.348-19.488 97.965 0 67.895 26.973 133.01 74.98 181.02 48.012 48.008 113.12 74.98 181.02 74.98s133.01-26.973 181.02-74.98c48.008-48.008 74.98-113.12 74.98-181.02s-26.973-133.01-74.98-181.02c-48.008-48.008-113.12-74.98-181.02-74.98zm0 28.91c29.492 0 58.695 5.875 85.941 17.289 27.246 11.41 52.004 28.137 72.855 49.227 20.855 21.086 37.395 46.121 48.684 73.672 11.285 27.551 17.094 57.082 17.094 86.902 0 60.227-23.66 117.99-65.777 160.57-42.113 42.59-99.234 66.512-158.8 66.516-29.488 0-58.691-5.875-85.941-17.289-27.246-11.41-52-28.137-72.855-49.227-20.852-21.086-37.395-46.121-48.68-73.672-11.289-27.551-17.098-57.078-17.098-86.902 0-29.82 5.8086-59.352 17.094-86.902 11.289-27.551 27.828-52.586 48.684-73.672 20.852-21.09 45.609-37.816 72.855-49.23 27.25-11.41 56.453-17.285 85.941-17.285z" fill="#current"/>
 <g clip-path="url(#b)">
  <path d="m153.5 312.03c-7.5898 0-13.191-2.1875-16.82-4.2852-12.492-7.2227-19.195-22.785-17.926-41.633 2.2266-32.988 0.43359-42.617-11.977-64.379-13.5-23.672-19.488-37.27 3.1562-64.035 9.9961-11.816 23.168-17.809 37.094-16.867 14.062 0.94531 35.414 9.2773 57.277 43.574 1.6367 2.5703 0.87891 5.9805-1.6875 7.6172-2.5703 1.6406-5.9844 0.87891-7.6172-1.6875-15.121-23.723-32.422-37.398-48.711-38.496-10.434-0.65625-20.137 3.7812-27.926 12.988-17.922 21.176-14.977 28.68-1.9961 51.441 14.219 24.934 15.633 37.453 13.402 70.586-0.98047 14.555 3.668 26.27 12.438 31.34 9.7031 5.6133 23.793 2.8398 39.668-7.7891 2.5234-1.6953 5.9531-1.0156 7.6523 1.5156 1.6953 2.5312 1.0156 5.957-1.5156 7.6523-14.188 9.4961-25.688 12.457-34.512 12.457z" fill="current"/>
 </g>
 <path d="m289.75 391.27c-0.8125 0-1.6172-0.12109-2.3945-0.36719-7.6445-2-9.0195-14.137-6.8828-25.242 0.96484-4.4805 3.8281-15.012 10.047-18.629 2.1016-1.2188 4.4297-1.5391 6.6016-0.90625 8.3633 2.2344 9.0352 14.996 7.0586 25.297-0.66016 3.3789-3.3242 14.648-9.918 18.562-1.4414 0.85156-2.9883 1.2852-4.5117 1.2852zm4.2188-31.539c-0.91797 1.8828-1.918 4.582-2.6875 8.1367-0.73828 3.8555-0.78125 7.1562-0.53906 9.5156 0.91797-1.8555 1.9141-4.5312 2.6055-8.0625 0.78906-4.0977 0.83594-7.332 0.62109-9.5898z" fill="#current"/>
 <path d="m285.34 384.54c-0.023438 0-0.042969 0-0.066406-0.003906-19.652-0.23828-34.926-6.4648-45.398-18.5-15.281-17.559-20.121-46.441-14.805-88.293 0.38281-3.0195 3.1484-5.1328 6.1719-4.7773 3.0234 0.38672 5.1602 3.1445 4.7773 6.1719-4.832 38.012-0.73438 64.816 12.18 79.656 8.4375 9.6992 20.609 14.512 37.211 14.715 3.0469 0.035156 5.4844 2.5391 5.4492 5.582-0.039063 3.0234-2.5039 5.4492-5.5195 5.4492z" fill="current"/>
 <path d="m289.75 361.55c-0.44531 0-0.89453-0.054687-1.3398-0.16406-10.359-2.5898-17.996-7.8516-22.082-15.219-4.207-7.5781-4.5898-16.836-1.1367-27.504 1.1602-3.543 2.2891-6.9102 3.3711-10.137 4.8281-14.379 8.6367-25.742 9.0547-34.941 0.13672-3.043 2.5898-5.4023 5.7617-5.2617 3.043 0.14062 5.3984 2.7188 5.2617 5.7617-0.48828 10.742-4.5156 22.75-9.6211 37.953-1.0703 3.1953-2.1914 6.5391-3.3398 10.035-2.4648 7.6289-2.3711 13.941 0.29297 18.738 2.6055 4.6914 7.6875 8.0117 15.109 9.8672 2.957 0.74219 4.7539 3.7344 4.0156 6.6914-0.625 2.5078-2.8711 4.1797-5.3477 4.1797z" fill="current"/>
 <g clip-path="url(#a)">
  <path d="m358.49 312.02c-8.8047 0-20.293-2.9531-34.48-12.453-2.5312-1.6953-3.207-5.1211-1.5156-7.6523 1.6953-2.5312 5.125-3.207 7.6523-1.5156 15.824 10.598 29.867 13.391 39.531 7.8281 8.7773-5.0391 13.48-16.781 12.578-31.41-2.2344-33.105-0.81641-45.629 13.398-70.555 12.816-22.781 15.719-30.297-2.1758-51.441-7.7734-9.1914-17.441-13.668-27.82-12.988-16.254 1.0742-33.594 14.754-48.828 38.512-1.6406 2.5625-5.0469 3.3125-7.6211 1.668-2.5664-1.6445-3.3086-5.0547-1.668-7.6211 22.012-34.328 43.355-42.641 57.387-43.57 13.879-0.91016 26.992 5.0781 36.973 16.871 22.633 26.754 17.055 39.648 3.3516 64.008-12.426 21.785-14.215 31.41-11.988 64.406 1.168 18.941-5.5977 34.516-18.094 41.691-3.6016 2.0703-9.1602 4.2227-16.68 4.2227z" fill="current"/>
 </g>
 <path d="m195.61 166.64c-1.4805 0-2.9648-0.59375-4.0508-1.7734-2.0664-2.2344-1.9336-5.7266 0.30859-7.7969 21.301-19.691 41.656-28.863 64.055-28.863 3.0469 0 5.5195 2.4688 5.5195 5.5195 0 3.0469-2.4688 5.5195-5.5195 5.5195-19.453 0-37.426 8.2383-56.566 25.934-1.0625 0.97656-2.4062 1.4609-3.7461 1.4609z" fill="current"/>
 <path d="m316.41 166.64c-1.332 0-2.668-0.48047-3.7266-1.4492-19.312-17.703-37.355-25.949-56.77-25.949-3.0469 0-5.5195-2.4688-5.5195-5.5195 0-3.0469 2.4688-5.5195 5.5195-5.5195 22.348 0 42.754 9.168 64.227 28.848 2.2461 2.0586 2.3984 5.5508 0.33984 7.7969-1.0898 1.1914-2.5781 1.793-4.0703 1.793z" fill="current"/>
 <path d="m231.28 340.95c-0.58984 0-1.1875-0.09375-1.7773-0.29297-19.336-6.5781-35.441-20.566-49.246-42.762-1.6094-2.5859-0.81641-5.9883 1.7695-7.5977 2.582-1.6094 5.9883-0.81641 7.5977 1.7695 12.402 19.941 26.605 32.418 43.43 38.141 2.8867 0.98047 4.4297 4.1133 3.4453 7-0.77734 2.3008-2.9219 3.7422-5.2188 3.7422z" fill="current"/>
 <path d="m269.15 343.9c-2.6484 0-4.9844-1.9141-5.4336-4.6133-0.5-3.0078 1.5312-5.8477 4.5352-6.3477 21.711-3.6172 38.918-16.609 54.156-40.887 1.625-2.5742 5.0234-3.3633 7.6055-1.7383 2.582 1.6172 3.3594 5.0234 1.7383 7.6055-16.805 26.77-36.98 41.785-61.688 45.902-0.30859 0.050782-0.61328 0.078126-0.91406 0.078126z" fill="current"/>
 <path d="m192.48 205.25c-2.0391 0-4-1.1367-4.957-3.0898-18.328-37.445-32.273-46.297-40.746-47.125-7.0469-0.66797-14.297 3.8438-21.625 13.469-1.8477 2.4258-5.3047 2.8906-7.7305 1.0469-2.4219-1.8438-2.8906-5.3047-1.0469-7.7305 9.7969-12.871 20.391-18.828 31.477-17.766 16.621 1.6289 32.84 19.051 49.578 53.25 1.3398 2.7383 0.21094 6.0391-2.5273 7.3789-0.78125 0.38281-1.6094 0.56641-2.4219 0.56641z" fill="current"/>
 <path d="m319.54 205.25c-0.8125 0-1.6328-0.17578-2.4062-0.55859-2.7383-1.332-3.8828-4.6289-2.5508-7.3711 16.605-34.18 32.797-51.602 49.488-53.262 11.145-1.1328 21.766 4.8711 31.578 17.762 1.8438 2.4258 1.375 5.8867-1.0469 7.7305-2.4219 1.8398-5.8828 1.3789-7.7305-1.0469-7.3359-9.6367-14.621-14.129-21.703-13.465-8.5273 0.84375-22.496 9.7031-40.668 47.102-0.95312 1.9648-2.9141 3.1094-4.9609 3.1094z" fill="current"/>
 <path d="m184.95 300.5c-1.9883 0-3.9141-1.082-4.8984-2.9727-12.285-23.609-16.605-45.422-12.844-64.828 0.58203-2.9922 3.4922-4.9336 6.4648-4.3672 2.9922 0.57812 4.9492 3.4766 4.3672 6.4688-3.2773 16.902 0.69531 36.293 11.797 57.633 1.4062 2.7031 0.35547 6.0352-2.3477 7.4414-0.80859 0.42578-1.6797 0.625-2.5391 0.625z" fill="current"/>
 <path d="m327.08 300.5c-0.84766 0-1.707-0.19531-2.5117-0.60938-2.7109-1.3867-3.7852-4.7148-2.3945-7.4258 10.945-21.371 14.914-40.789 11.805-57.719-0.55078-2.9961 1.4336-5.8711 4.4297-6.4219 3.0234-0.54297 5.875 1.4336 6.4219 4.4297 3.5586 19.379-0.76172 41.16-12.836 64.746-0.97656 1.9023-2.9141 3-4.9141 3z" fill="current"/>
 <path d="m226.13 233.39c-9.7344 0-17.656-7.918-17.656-17.652s7.9219-17.656 17.656-17.656 17.652 7.9219 17.652 17.656-7.918 17.652-17.652 17.652zm0-24.273c-3.5898 0-6.6211 3.0312-6.6211 6.6211s3.0312 6.6172 6.6211 6.6172c3.6484 0 6.6172-2.9688 6.6172-6.6172 0-3.6523-2.9648-6.6211-6.6172-6.6211z" fill="current"/>
 <path d="m285.89 233.39c-9.7344 0-17.656-7.918-17.656-17.652s7.9219-17.656 17.656-17.656c9.6328 0 17.469 7.9219 17.469 17.656s-7.8359 17.652-17.469 17.652zm0-24.273c-3.6523 0-6.6211 2.9688-6.6211 6.6211 0 3.6484 2.9688 6.6172 6.6211 6.6172 3.5469 0 6.4336-2.9688 6.4336-6.6172 0-3.6523-2.8867-6.6211-6.4336-6.6211z" fill="current"/>
</svg>
