<?xml version="1.0" encoding="UTF-8"?>
<svg width="100%" height="100%" version="1.1" viewBox="0 0 512 512" xmlns="http://www.w3.org/2000/svg">
 <g fill="current">
  <path d="m256 0c-33.617 0-66.906 6.6211-97.965 19.488-31.062 12.863-59.281 31.719-83.055 55.492-23.773 23.773-42.629 51.992-55.492 83.055-12.867 31.059-19.488 64.348-19.488 97.965 0 67.895 26.973 133.01 74.98 181.02 48.012 48.008 113.12 74.98 181.02 74.98s133.01-26.973 181.02-74.98c48.008-48.008 74.98-113.12 74.98-181.02s-26.973-133.01-74.98-181.02c-48.008-48.008-113.12-74.98-181.02-74.98zm0 28.91c29.492 0 58.695 5.875 85.941 17.289 27.246 11.41 52.004 28.137 72.855 49.227 20.855 21.086 37.395 46.121 48.684 73.672 11.285 27.551 17.094 57.082 17.094 86.902 0 60.227-23.66 117.99-65.777 160.57-42.113 42.59-99.234 66.512-158.8 66.516-29.488 0-58.691-5.875-85.941-17.289-27.246-11.41-52-28.137-72.855-49.227-20.852-21.086-37.395-46.121-48.68-73.672-11.289-27.551-17.098-57.078-17.098-86.902 0-29.82 5.8086-59.352 17.094-86.902 11.289-27.551 27.828-52.586 48.684-73.672 20.852-21.09 45.609-37.816 72.855-49.23 27.25-11.41 56.453-17.285 85.941-17.285z"/>
  <path d="m178.54 125.01c-21.609 0-43.453 16.922-43.453 42.82 0 15.785 7.5977 28.891 11.652 34.637-16.414 30.859-21.727 63.883-21.727 83.762v5.0352l4.0898 3.1484c23.656 17.91 37.945 39.48 55.105 58.254 17.16 18.777 38.613 34.324 71.793 34.324s54.633-15.547 71.793-34.324c17.16-18.773 31.449-40.344 55.105-58.254l4.0938-3.1484v-5.0352c0-19.879-5.3164-52.902-21.727-83.762 4.0508-5.7461 11.648-18.852 11.648-34.637 0-25.898-21.844-42.82-43.453-42.82-18.973 0-31.922 8.9336-39.047 15.742-11.531-3.6602-24.285-5.668-38.414-5.668s-26.883 2.0078-38.414 5.668c-7.125-6.8086-20.074-15.742-39.047-15.742zm0 20.152c7.9531 0 13.855 2.043 18.262 4.4062-15.309 8.5039-27.707 20.23-37.469 33.062-2.125-4.4883-4.0938-9.7227-4.0938-14.801 0-14.602 12.004-22.668 23.301-22.668zm154.92 0c11.297 0 23.301 8.0664 23.301 22.668 0 5.0781-1.9688 10.312-4.0938 14.801-9.7617-12.832-22.16-24.559-37.469-33.062 4.4062-2.3633 10.312-4.4062 18.262-4.4062zm-94.148 11.02c3.582 5.4688 9.6406 9.1328 16.688 9.1328 6.9688 0 13.066-3.4648 16.688-8.8203 9.3711 1.3398 17.91 3.6641 25.508 6.9297-1.0625 2.0859-1.8906 4.4062-1.8906 6.9258 0 8.3438 6.7695 15.117 15.113 15.117 4.8047 0 9.2109-2.168 11.969-5.668 8.3828 7.7148 15.348 16.727 21.094 26.449 4.0938 6.9258 7.5977 14.207 10.391 21.41-4.8398 2.5195-8.1836 7.4023-8.1836 13.227 0 8.3438 6.7695 15.113 15.113 15.113 0.39453 0 0.86719 0.039062 1.2578 0 2.0469 10.195 2.9141 19.324 3.1484 26.449-0.51172 0.43359-1.0625 0.82812-1.5742 1.2617-2.6367-4.4883-7.3203-7.5586-12.91-7.5586-8.3438 0-15.113 6.7695-15.113 15.113 0 5.3164 2.7539 9.9219 6.9297 12.598-11.887 12.672-21.609 25.148-30.859 35.266-15.586 17.043-29.363 27.711-56.68 27.711s-41.09-10.668-56.68-27.711c-9.25-10.117-18.969-22.594-30.855-35.266 4.1719-2.6758 6.9258-7.2812 6.9258-12.598 0-8.3438-6.7695-15.113-15.113-15.113-5.5898 0-10.273 3.0703-12.91 7.5586-0.51172-0.43359-1.0625-0.82813-1.5742-1.2617 0.23438-7.125 1.1016-16.254 3.1484-26.449 0.39453 0.039062 0.86719 0 1.2578 0 8.3438 0 15.117-6.7695 15.117-15.113 0-5.8242-3.3477-10.707-8.1875-13.227 2.793-7.2031 6.2969-14.484 10.391-21.41 5.7461-9.7227 12.711-18.734 21.098-26.449 2.7539 3.5 7.1641 5.668 11.965 5.668 8.3438 0 15.113-6.7734 15.113-15.117 0-2.5195-0.82812-4.8398-1.8906-6.9258 7.5977-3.2656 16.102-5.9453 25.508-7.2422zm16.688 29.285c-5.5508 0-10.074 4.5234-10.074 10.074s4.5234 10.078 10.074 10.078 10.078-4.5273 10.078-10.078-4.5273-10.074-10.078-10.074zm-70.531 20.152s-7.4805 9.207-10.078 20.152h20.152v10.074h19.836c0.12109 0.66797 0.31641 1.2188 0.31641 1.8906 0 2.4805-0.78516 4.1719-2.832 6.9258-2.0469 2.7539-5.2383 6.2188-9.1328 10.078-7.832 7.7148-18.262 19.051-18.262 36.211 0 21.922 18.891 35.266 18.891 35.266l12.594-15.742s-11.332-10.824-11.332-19.523c0-9.6055 4.6836-14.879 11.965-22.043 3.6602-3.582 8.0273-7.3594 11.648-12.281 3.6211-4.918 6.6133-11.336 6.6133-18.891 0-9.1328-3.9766-17.043-9.4453-22.672-5.4727-5.6289-12.637-9.4453-20.781-9.4453zm120.91 0c-8.1484 0-15.312 3.8164-20.785 9.4453-5.4688 5.6289-9.4453 13.539-9.4453 22.672 0 7.5547 2.9922 13.973 6.6133 18.891 3.6211 4.9219 7.9883 8.6992 11.648 12.281 7.2852 7.1641 11.969 12.438 11.969 22.043 0 8.6992-11.336 19.523-11.336 19.523l12.594 15.742s18.895-13.344 18.895-35.266c0-17.16-10.434-28.496-18.266-36.211-3.8945-3.8594-7.082-7.3242-9.1289-10.078-2.0469-2.7539-2.8359-4.4453-2.8359-6.9258 0-0.67188 0.19531-1.2227 0.31641-1.8906h19.836v-10.074h20.152c-2.5977-10.945-10.074-20.152-10.074-20.152zm-68.645 70.531c-15.234 0-21.098 14.484-21.098 14.484l18.262 8.5039s2.0859-2.8359 2.8359-2.8359c0.74609 0 4.4062 0.98437 7.2422 2.5195 2.832 1.5352 5.0352 3.1484 5.0352 3.1484l5.9844 4.7227 5.9844-4.7227s2.2031-1.6133 5.0352-3.1484c2.8359-1.5352 6.4961-2.5195 7.2422-2.5195 0.75 0 2.8359 2.8359 2.8359 2.8359l18.262-8.5039s-5.8633-14.484-21.098-14.484c-7.2422 0-12.75 2.7148-17 5.0391-0.78906 0.43359-0.59375 0.55078-1.2617 0.94531-0.66797-0.39453-0.47266-0.51172-1.2578-0.94531-4.2539-2.3242-9.7617-5.0391-17.004-5.0391zm8.1875 40.305c0 4.6836-1.5742 5.6289-5.9844 7.5586-4.4102 1.9258-11.02 2.5195-14.168 2.5195v20.152c5.1562 0 13.734-0.67188 22.355-4.4102 2.7148-1.1797 5.3516-2.8711 7.8711-5.0391 2.5195 2.168 5.1562 3.8594 7.8711 5.0391 8.6211 3.7383 17.203 4.4102 22.359 4.4102v-20.152c-3.1523 0-9.7617-0.59375-14.172-2.5195-4.4062-1.9297-5.9805-2.875-5.9805-7.5586z"/>
 </g>
</svg>
