<?xml version="1.0" encoding="UTF-8"?>
<svg width="100%" height="100%" version="1.1" viewBox="0 0 512 512" xmlns="http://www.w3.org/2000/svg">
 <g fill="current">
  <path d="m256 0c-33.617 0-66.906 6.6211-97.965 19.488-31.062 12.863-59.281 31.719-83.055 55.492-23.773 23.773-42.629 51.992-55.492 83.055-12.867 31.059-19.488 64.348-19.488 97.965 0 67.895 26.973 133.01 74.98 181.02 48.012 48.008 113.12 74.98 181.02 74.98s133.01-26.973 181.02-74.98c48.008-48.008 74.98-113.12 74.98-181.02s-26.973-133.01-74.98-181.02c-48.008-48.008-113.12-74.98-181.02-74.98zm0 28.91c29.492 0 58.695 5.875 85.941 17.289 27.246 11.41 52.004 28.137 72.855 49.227 20.855 21.086 37.395 46.121 48.684 73.672 11.285 27.551 17.094 57.082 17.094 86.902 0 60.227-23.66 117.99-65.777 160.57-42.113 42.59-99.234 66.512-158.8 66.516-29.488 0-58.691-5.875-85.941-17.289-27.246-11.41-52-28.137-72.855-49.227-20.852-21.086-37.395-46.121-48.68-73.672-11.289-27.551-17.098-57.078-17.098-86.902 0-29.82 5.8086-59.352 17.094-86.902 11.289-27.551 27.828-52.586 48.684-73.672 20.852-21.09 45.609-37.816 72.855-49.23 27.25-11.41 56.453-17.285 85.941-17.285z"/>
  <path d="m255.7 338.54c7.9492 4.832 18.562 6.1367 28.133 6.1367-1.9023 4.0859-6.8242 8.4531-12.871 10.973-6.0469 2.4961-12.824 3.5078-15.262 3.5078-2.4453 0-9.2188-1.0078-15.246-3.5078-6.0625-2.5195-10.973-6.8906-12.871-10.973 9.5469 0.003906 20.168-1.3008 28.117-6.1367zm-40.996-151.23c4.4023-0.097656 8.8828 0.46094 13.34 1.3047 10.672 2.0156 20.32 5.8203 27.656 5.8203 7.3516 0 16.996-3.8086 27.672-5.8203 4.457-0.84375 8.9375-1.4023 13.34-1.3047 7.332 0.12891 14.461 2.0156 21.066 7.2773 14.332 11.402 18.023 32.34 14.105 46.836-3.3555 12.371-18.227 23.641-28.961 33.176-2.7617 2.4648-1.8242 4.5312 0.82031 9.4961 4.4609 8.3398 8.1211 15.73 3.4922 30.156-7.2812 22.746-32.32 26.105-46.09 19.461v-10.074c0-10.543 11.031-18.285 18.734-23.117 4.8711-3.043 4.3867-13.043-3.7695-10.973-6.9805 1.793-13.266 3.3398-20.41 3.3398s-13.418-1.5469-20.395-3.3398c-8.1523-2.0742-8.6367 7.9297-3.7695 10.973 7.707 4.832 18.734 12.578 18.734 23.117v10.074c-13.773 6.6445-38.812 3.2852-46.086-19.461-4.6289-14.426-0.98828-21.816 3.4844-30.156 2.6523-4.9609 3.582-7.0312 0.82031-9.4961-10.73-9.5352-25.598-20.805-28.961-33.176-3.9141-14.5-0.21875-35.438 14.113-46.836 6.5977-5.2617 13.73-7.1484 21.062-7.2773zm2.9258-73.277c-4.9609 0.14844-10.523 1.0781-16.926 3.3008-11.422 3.9219-19.535 10.414-27.223 13.957-7.6914 3.5234-14.613 4.6484-25.77-1.8086-1.4023-0.82031-3.2109-0.14844-3.7305 1.4023 0 0-3.3203 13.254 5.1133 23.699-18.992 18.625-33.457 41.031-35.566 76.84-0.10938 1.793 1.6211 3.1523 3.3398 2.5938l16.348-5.1133c-9.8164 19.199-14.461 40.285-10.148 59.672 0.39063 1.9023 2.707 2.6836 4.1797 1.4023l16.121-13.883c-0.72656 9.5859-0.6875 19.648 0.92969 28.605 1.9648 10.766 4.8164 19.723 7.5938 24.539 0.93359 1.6367 3.2109 1.7734 4.3125 0.25781l11.512-15.676c0.74609 11.883 2.3906 23.621 6.043 33.027 4.3516 11.219 10.133 20.004 16.551 24.801 1.4023 1.043 3.4141 0.40625 3.957-1.25l5.0586-15.434c12.43 19.445 30.863 36.184 55.719 42.844 0.42969 0.11328 0.87891 0.11328 1.3203 0 24.84-6.6602 43.293-23.398 55.719-42.844l5.0391 15.434c0.55859 1.6602 2.5547 2.293 3.957 1.25 6.4375-4.7969 12.223-13.586 16.57-24.801 3.6562-9.4062 5.2969-21.141 6.0469-33.027l11.492 15.676c1.1016 1.5156 3.3945 1.3789 4.3281-0.25781 2.7812-4.8164 5.6367-13.773 7.5938-24.539 1.6211-8.957 1.6641-19.016 0.91406-28.605l16.141 13.883c1.4766 1.2656 3.7695 0.5 4.1797-1.4023 4.3125-19.391-0.35547-40.473-10.172-59.672l16.367 5.1133c1.7188 0.53906 3.4531-0.80078 3.3398-2.5938-2.125-35.809-16.566-58.215-35.566-76.84 8.4375-10.445 5.1133-23.699 5.1133-23.699-0.51953-1.5312-2.3125-2.2031-3.7109-1.4023-11.16 6.4609-18.117 5.3359-25.805 1.8086-7.6719-3.543-15.766-10.035-27.188-13.957-12.816-4.4375-22.184-3.7305-30.414-1.9219-8.2109 1.8086-15.246 4.5156-24.59 4.5156-9.3477 0-16.406-2.7031-24.617-4.5156-4.1211-0.91797-8.5078-1.5469-13.473-1.3789z"/>
  <path d="m204.54 240.31c1.8828-0.054688 3.3203 0.59766 3.7695 1.5664 1.5078 3.2656 3.9141 5.6562 7.0898 7.2812 4.3281 2.2227 10.504 2.6328 18.012 2.6836 0.89062 1.9453 1.5312 3.3242 1.8438 5.6562 0.39844 2.9492 3.2852 3.582 3.8828-0.30078 0.53906-9.7539-3.8672-17.316-10.652-21.996-7.75-5.3359-18.418-6.0469-24.652 1.0078-1.6797 1.9766-1.8477 4.1992 0.70703 4.1016z"/>
  <path d="m306.88 240.31c-1.8867-0.054688-3.3242 0.59766-3.7695 1.5664-1.5156 3.2656-3.9219 5.6562-7.0938 7.2812-4.3281 2.2227-10.504 2.6328-18.023 2.6836-0.89844 1.9453-1.5156 3.3242-1.832 5.6562-0.39062 2.9492-3.2852 3.582-3.8828-0.30078-0.53906-9.7539 3.8672-17.316 10.66-21.996 7.7227-5.3359 18.414-6.0469 24.648 1.0078 1.6836 1.9766 1.8516 4.1992-0.70703 4.1016z"/>
 </g>
</svg>
