<?xml version="1.0" encoding="UTF-8"?>
<svg width="100%" height="100%" version="1.1" viewBox="0 0 512 512" xmlns="http://www.w3.org/2000/svg">
 <defs>
  <clipPath id="b">
   <path d="m94.781 272h173.22v119h-173.22z"/>
  </clipPath>
  <clipPath id="a">
   <path d="m130 138h287.22v192h-287.22z"/>
  </clipPath>
 </defs>
 <path d="m256 0c-33.617 0-66.906 6.6211-97.965 19.488-31.062 12.863-59.281 31.719-83.055 55.492-23.773 23.773-42.629 51.992-55.492 83.055-12.867 31.059-19.488 64.348-19.488 97.965 0 67.895 26.973 133.01 74.98 181.02 48.012 48.008 113.12 74.98 181.02 74.98s133.01-26.973 181.02-74.98c48.008-48.008 74.98-113.12 74.98-181.02s-26.973-133.01-74.98-181.02c-48.008-48.008-113.12-74.98-181.02-74.98zm0 28.91c29.492 0 58.695 5.875 85.941 17.289 27.246 11.41 52.004 28.137 72.855 49.227 20.855 21.086 37.395 46.121 48.684 73.672 11.285 27.551 17.094 57.082 17.094 86.902 0 60.227-23.66 117.99-65.777 160.57-42.113 42.59-99.234 66.512-158.8 66.516-29.488 0-58.691-5.875-85.941-17.289-27.246-11.41-52-28.137-72.855-49.227-20.852-21.086-37.395-46.121-48.68-73.672-11.289-27.551-17.098-57.078-17.098-86.902 0-29.82 5.8086-59.352 17.094-86.902 11.289-27.551 27.828-52.586 48.684-73.672 20.852-21.09 45.609-37.816 72.855-49.23 27.25-11.41 56.453-17.285 85.941-17.285z" fill="current"/>
 <path d="m328.09 296.61h-9.4727c-2.6211 0-4.7852-2.0156-4.9883-4.5859l-2.0664-27.207-2.3164 2.3672c-0.75391 0.75391-1.4609 1.4102-2.2148 2.0664-9.5742 8.4141-10.125 14.258-10.125 15.316 0.25 1.3594 2.9727 13.402 11.941 20.102 0.85547 0.65625 2.0664 1.0078 3.2734 1.0078h26.148l-0.60547-1.9648c-1.2578-4.2266-5.1875-7.1016-9.5742-7.1016z" fill="current"/>
 <path d="m237.66 293.54-0.60547-0.10156-12.695 9.5234h32.293l-1.9141-2.4688c-3.7773-4.7891-14.91-6.6523-17.078-6.9531z" fill="current"/>
 <g clip-path="url(#b)">
  <path d="m243.25 361c-4.7852-1.4102-9.8242-2.168-14.914-2.168-9.3711 0-19.094 2.4688-28.062 7.0547-14.008 7.2031-27.355 10.832-39.699 10.832-7.0039 0-13.805-1.2109-20.152-3.5273-18.895-6.9023-31.641-25.293-31.691-45.695 0-23.125 16.828-36.023 24.031-40.508l1.5117-0.90625-1.207-1.3594c-2.168-2.5703-3.5781-5.8945-4.2305-9.9258l-0.30078-2.0156-1.8633 0.90625c-7.5586 3.7266-25.746 15.266-30.73 42.27-4.0312 21.816 2.6211 43.43 17.836 57.938 11.336 10.68 24.938 16.121 40.457 16.172 10.73-0.10156 21.312-2.8203 31.438-8.0625 10.277-5.3906 30.18-14.41 48.367-14.41 5.9453 0 11.336 0.95703 16.02 2.8711 5.8945 2.3672 10.781 6.3477 14.609 11.84l2.6719-1.3594c-3.4336-9.5195-11.547-16.219-24.09-19.945z" fill="current"/>
 </g>
 <path d="m299.83 137.5c1.7617-0.95703 3.7266-1.5117 5.793-1.5117 0.35156 0 4.6367 0.20312 4.6367 0.20312 3.5781 0.15234 9.7227 0.45313 17.027 0.70703l3.0234 0.10156-1.7148-2.5195c-3.2227-4.6836-9.9766-12.594-18.895-12.594-1.9648 0-3.8789 0.40234-5.793 1.1602-1.9648 0.75391-3.6289 2.2656-4.6367 4.1797-1.2578 2.5195-1.8125 5.543-1.6133 8.9688l0.10156 2.418z" fill="current"/>
 <g clip-path="url(#a)">
  <path d="m416.66 161.69c-2.3164-2.5195-10.68-8.1602-40.457-17.582l-2.3672-0.80469c-5.3906-1.6641-10.379-3.2227-15.82-3.3242-13.098-0.25-28.668-0.80469-38.895-1.2578l-4.4844-0.20312 3.4258 2.8711c6.1445 5.1875 10.328 12.695 11.992 15.82 0.10156 0.25 0.10156 0.50391 0.050781 0.75391-0.050781 0.15234-0.20312 0.40234-0.50391 0.55469l-0.50391 0.10156c-0.30078 0-0.65625-0.15234-0.85547-0.60547-0.95703-1.8633-9.4219-18.488-21.512-19.902-0.40234-0.050781-0.85547-0.050781-1.2578-0.050781-2.8711 0-5.6914 1.3594-7.457 3.6289l-0.35156 0.40234c-1.0586 1.4102-1.8125 3.2227-2.1172 5.2891-1.2109 9.3711 1.2578 22.922 20.152 33.906 0.40234 0.25 0.60547 1.0078 0.35156 1.4102-0.25 0.40234-0.70703 0.45313-0.85547 0.45313-0.20312 0-0.40234-0.050782-0.50391-0.10156-10.629-6.2461-17.434-14.008-20.152-23.074l-0.75781-2.2148-1.7617 1.5117c-1.8125 1.6133-3.8789 2.7695-6.1445 3.4766-1.6133 0.55469-3.3242 0.80469-5.1875 0.80469-2.6719 0-5.5938-0.60547-8.3125-1.7617-8.0117-3.4766-24.285-9.3711-43.379-9.3711-29.523 0-53.352 13.602-70.938 40.508-0.40234 0.70703-41.766 71.539-22.773 91.09 0.15234 0.20312 18.59 17.582 34.812 17.582 1.3086 0 2.6211-0.10156 3.8789-0.30078l0.90625-0.20312 0.25-0.95703c1.2109-4.7344 4.1797-8.1602 4.2812-8.2109 0.20312-0.25 0.45312-0.35156 0.70703-0.35156 0.20312 0 0.45312 0.050781 0.70703 0.25 0.15234 0.15234 0.30078 0.40234 0.30078 0.65625 0.050782 0.30078-0.050781 0.55469-0.15234 0.70703-0.050781 0-3.1758 3.6289-4.1797 8.6641-0.15234 1.2578-0.20312 2.4688-0.050781 3.5781 0.45312 3.4258 2.6211 6.5508 6.5 9.1172 0.75391 0.50391 4.5352 3.125 5.7422 6.9531 0.80469 2.2148 2.3164 3.5273 4.2305 3.6797l47.914 4.2812-0.65625-2.168c-1.2578-3.9805-4.8359-6.8516-8.8164-7.2539-23.73-2.3164-29.977-12.898-29.977-13-0.20312-0.35156-0.20312-0.80469 0.050781-1.1602 0.15234-0.25 0.45312-0.40234 0.95703-0.40234h0.050782c1.1602 0.25 2.3672 0.35156 3.6289 0.35156 1.0078 0 2.0156-0.050781 3.1758-0.20312 0.65625-0.15234 1.2578-0.25 2.0156-0.40234 0.35156-0.10156 0.75391-0.15234 1.0078-0.25 0.45312-0.10156 1.0078-0.25 1.6133-0.40234 0.20312-0.10156 0.50391-0.15234 0.75391-0.25 0.20312-0.10156 0.40234-0.15234 0.60547-0.20312 0.60547-0.20313 1.1602-0.45313 1.7617-0.65625l1.0586-0.45313 0.15234-0.050781c9.0703-4.0312 16.324-10.531 16.324-10.531 6.1953-5.5938 8.8164-10.73 7.8594-15.367-1.4102-6.5508-9.7227-10.078-12.395-11.035-0.55469-0.20313-0.85547-0.75391-0.70703-1.2578 0.15234-0.40234 0.50391-0.65625 1.1602-0.65625h0.20312c0.15234 0 11.891 3.8789 13.703 12.594 0.55469 2.5703 0.15234 5.2383-1.2109 8.1133l-1.1094 2.2148 2.5195-0.050781c9.5742-0.25 19.445-4.082 22.219-5.1875l1.1602-0.45312-0.15625-1.1562c-0.75391-4.3828-1.1094-7.5078-1.2109-8.6641-0.050781-0.55469 0.40234-1.0586 1.0586-1.1094 0.50391 0 0.90625 0.40234 0.95703 0.80469 0 0.35156 0.40234 4.6836 1.4102 10.379v0.50391l0.15234 0.20312c2.2656 12.141 6.8516 28.566 15.566 38.039 2.5703 2.8711 6.3984 4.5352 10.43 4.5352h25.594l-1.1094-2.2148c-1.7617-3.375-5.2891-5.543-9.1172-5.543h-9.9766c-3.8789 0-7.1055-3.2227-7.1055-7.1055v-25.594c0-0.70703 0.30078-7.3047 10.883-16.625 1.7617-1.6133 3.5273-3.2734 5.543-5.3906h0.10156l0.45312-0.45312c5.3906-5.543 10.531-11.992 15.82-19.699l13-18.742c7.1523-10.328 16.676-18.238 27.66-22.871 13.352-5.7422 25.543-7.2031 27.859-7.457l2.3164-0.25-1.1602-2.0156c-0.25-0.40234-0.80469-1.4102-5.8945-3.2227-1.8125-0.70703-5.5938-1.9648-10.027-2.8203-0.50391-0.10156-0.85547-0.55469-0.80469-1.1094 0-0.55469 0.50391-0.85547 0.90625-0.90625 28.312-1.3086 34.41-15.367 35.621-19.648l0.20312-0.91406zm-51.238 9.0195c-2.8711 0-5.2383-2.3672-5.2383-5.2383s2.3672-5.2383 5.2383-5.2383c2.8711 0 5.2383 2.3672 5.2383 5.2383 0.003907 2.918-2.3125 5.2383-5.2383 5.2383z" fill="current"/>
 </g>
</svg>
