<?xml version="1.0" encoding="UTF-8"?>
<svg width="100%" height="100%" version="1.1" viewBox="0 0 512 512" xmlns="http://www.w3.org/2000/svg">
 <path d="m256 22c-129.23 0-234 104.77-234 234s104.77 234 234 234 234-104.77 234-234-104.77-234-234-234zm7.707 392.86v-30.055c69.996 0 126.95-57.781 126.95-128.81 0-71.023-56.949-128.81-126.95-128.81-69.996 0-126.95 57.785-126.95 128.81 0 10.414 1.2578 20.77 3.6875 30.816l12.762-26.285 27.039 13.125-27.93 57.535c-3.7656 7.7617-13.664 10.773-21.121 6.3984l-58.141-34.109 15.207-25.922 22.207 13.027c-2.4883-11.316-3.7656-22.926-3.7656-34.586 0-87.598 70.43-158.86 157-158.86 86.57 0 157 71.266 157 158.86s-70.43 158.86-157 158.86z" fill="current"/>
</svg>
