<?xml version="1.0" encoding="UTF-8"?>
<svg width="100%" height="100%" version="1.1" viewBox="0 0 512 512" xmlns="http://www.w3.org/2000/svg">
 <g fill="#676767">
  <path d="m44.438 196.06c16.953-5.1133 30.246-15.793 44.582-25.809 27.371-19.129 43.328-2.1211 64.582 14.574 30.176 23.711 57.566 7.0078 86.945-8.2734 27.523-14.324 49.75 5.7656 73.223 16.949 14.832 7.0664 29.711 6.0117 45.094 1.6836 26.871-7.5586 48.699-32.449 75.633-9.4492 10.895 9.3008 20.117 15.488 34.836 15.062 8.5742-0.25 8.6016-13.586 0-13.332-18.965 0.55469-30.453-18.41-47.344-24.719-15.301-5.7188-33.961 4.1289-47.207 10.641-29.863 14.676-48.32 12.895-76.438-3.5195-12.609-7.3594-28.164-13.863-43.09-11.414-21.312 3.5-37.355 17.695-57.5 24.457-23.66 7.9414-41.551-13.973-58.164-26.566-36.91-27.98-65.414 16.805-98.699 26.852-8.2031 2.4805-4.7031 15.355 3.5469 12.863z"/>
  <path d="m42.668 281.86c11.852-1.3984 20.121-4.2969 29.316-12.062 28.816-24.352 50.289-25.004 80.93-3.2539 34.469 24.457 66.832 14.57 98.742-7.1289 23.559-16.027 38.844 6.5977 59.902 13.035 17.105 5.2227 32.191 1.8398 48.523-4.7578 25.926-10.469 39.668-14.516 64.113 0.49219 13.445 8.2578 25.637 14.574 41.766 13.676 8.5508-0.48047 8.5938-13.812 0-13.332-32.645 1.8281-51.258-31.684-86.203-23.402-27.461 6.5117-45.137 25.973-74.414 9.2539-12.512-7.1406-28.156-18.527-43.711-13.961-14.309 4.1914-25.328 14.016-38.027 21.449-32.043 18.77-58.293-6.043-85.152-20.086-12.777-6.6836-26.555-7.0078-40.316-4.2891-22.332 4.4219-32.965 28.375-55.465 31.023-8.4375 1-8.5391 14.344-0.003906 13.344z"/>
  <path d="m46.043 358.41c11.602-0.50781 19.273-3.5234 28.57-10.711 34.586-26.727 54.422-3.7422 87.266 7.1094 39.691 13.121 66.246-15.754 104.25-16.816 18.875-0.52734 37.164 18.609 56.492 21.754 13.398 2.1875 28.129-2.1289 40.188-7.6094 12.027-5.4609 23.578-12.41 35.926-17.113 10.719-4.0859 24.98 14.641 32.215 20.238 10.887 8.4258 25.18 9.5312 38.383 9.8984 8.6016 0.23828 8.5742-13.094 0-13.332-23.922-0.67188-32.602-12.559-49.855-25.211-10.656-7.8125-19.855-6.1445-31.852-1.5742-19.301 7.3477-34.785 19.668-56.129 21.797-23.023 2.3047-37.66-18.711-59.082-21.398-14.324-1.7969-26.258 1.9609-39.574 7.1523-30.215 11.766-51.355 18.367-82.117 2.1289-17.324-9.1484-32.379-15.691-52.277-13.258-20.156 2.4648-32.363 22.734-52.406 23.605-8.5625 0.375-8.5938 13.715 0.003907 13.34z"/>
 </g>
</svg>
