<?xml version="1.0" encoding="UTF-8"?>
<svg width="100%" height="100%" version="1.1" viewBox="0 0 512 512" xmlns="http://www.w3.org/2000/svg">
 <g fill="current">
  <path d="m256 0c-33.617 0-66.906 6.6211-97.965 19.488-31.062 12.863-59.281 31.719-83.055 55.492-23.773 23.773-42.629 51.992-55.492 83.055-12.867 31.059-19.488 64.348-19.488 97.965 0 67.895 26.973 133.01 74.98 181.02 48.012 48.008 113.12 74.98 181.02 74.98s133.01-26.973 181.02-74.98c48.008-48.008 74.98-113.12 74.98-181.02s-26.973-133.01-74.98-181.02c-48.008-48.008-113.12-74.98-181.02-74.98zm0 28.91c29.492 0 58.695 5.875 85.941 17.289 27.246 11.41 52.004 28.137 72.855 49.227 20.855 21.086 37.395 46.121 48.684 73.672 11.285 27.551 17.094 57.082 17.094 86.902 0 60.227-23.66 117.99-65.777 160.57-42.113 42.59-99.234 66.512-158.8 66.516-29.488 0-58.691-5.875-85.941-17.289-27.246-11.41-52-28.137-72.855-49.227-20.852-21.086-37.395-46.121-48.68-73.672-11.289-27.551-17.098-57.078-17.098-86.902 0-29.82 5.8086-59.352 17.094-86.902 11.289-27.551 27.828-52.586 48.684-73.672 20.852-21.09 45.609-37.816 72.855-49.23 27.25-11.41 56.453-17.285 85.941-17.285z"/>
  <path d="m384.47 191.51c4.5352-6.5508 18.641-31.234 9.5742-72.043-0.50391-2.0156-2.0156-3.5273-4.0312-4.0312-1.5117 0.50391-37.789-5.543-69.023 16.625-31.238-12.09-59.953-9.0664-64.992-8.5625-5.0391-0.50391-33.25-3.5273-63.984 8.0586-31.234-21.664-67.004-15.617-68.516-15.617-2.0156 0.50391-4.0312 2.0156-4.0312 4.0312-8.5664 38.793 3.5273 62.977 8.5664 70.535-9.0703 17.633-15.113 38.793-18.137 62.977 0 2.0156 1.0078 4.0312 2.5195 5.0391 2.0156 1.0078 4.0312 1.0078 5.543-0.50391l3.0234-2.5195c-3.0234 10.078-5.0391 23.176-1.5117 38.289 0.50391 2.0156 2.0156 3.5273 4.0312 3.5273 2.0156 0.50391 4.0312-0.50391 5.0391-2.0156l6.543-8.0625c12.594 38.289 36.273 62.977 70.031 74.059-5.543 7.5586-9.0703 18.137-2.5195 25.695 8.0625 8.5664 37.785 10.078 52.395 10.078h8.0625c14.609-0.50391 40.305-2.5195 46.855-11.082 6.5508-8.0625 2.0156-18.137-3.5273-25.695 35.77-16.121 59.449-40.305 70.535-73.051l6.0469 8.5664c1.0078 1.5117 3.0234 2.5195 5.0391 2.0156 2.0156-0.50391 3.5273-2.0156 4.0312-3.5273 3.5273-15.113 2.0156-28.215-1.5117-38.289l3.0234 2.5195c1.5117 1.5117 4.0312 1.5117 5.543 0.50391 2.0156-1.0078 3.0234-3.0234 2.5195-5.0391-2.5273-24.191-8.0703-44.848-17.137-62.48zm0.50391-66c5.543 28.719-1.5117 47.359-6.0469 55.922-8.0625-13.098-18.137-24.688-29.727-33.754-6.043-4.0273-11.586-7.5547-17.633-10.578 21.664-12.594 44.84-12.09 53.406-11.59zm-256.44 0c8.0625-0.5 31.238-1.0039 52.398 11.086-6.0469 3.0234-12.09 6.5508-18.137 11.082-11.586 8.5664-21.16 19.648-29.223 32.242-4.5352-8.5625-10.578-27.203-5.0391-54.41zm173.31 253.92c-2.0156 2.5195-14.105 6.5508-39.297 7.0547-27.207 1.0078-49.375-2.5195-52.898-6.5508-3.0234-3.5273 1.5117-11.082 5.543-15.617 1.0078 0 1.5117 0.50391 2.5195 0.50391h2.5195c7.0547-2.0156 27.711-8.5664 35.77-18.137 8.0625 9.0703 28.719 15.617 35.77 18.137h1.5117c0.50391 0 1.0078 0 1.5117-0.50391 0.50391 0 1.5117-0.50391 2.0156-1.0078 3.5234 5.0391 8.0586 12.594 5.0352 16.121zm-52.902-53.906c-6.0469-5.0391-15.113-12.09-18.137-16.625 2.0156 1.0078 5.0391 2.0156 7.0547 3.0234 5.543 3.0234 12.09 6.0469 17.633 6.5508h1.0078c6.0469-0.50391 12.09-3.5273 17.633-6.5508 2.0156-1.0078 4.5352-2.5195 7.0547-3.0234-3.0234 4.5352-12.09 11.586-18.137 16.625-2.0156 1.5117-3.5273 3.0234-5.543 4.5352-0.50391 0.50391-1.0078 1.0078-1.5117 1.0078-0.50391-0.50391-1.0078-1.0078-1.5117-1.0078-1.5117-1.5117-3.5273-3.0234-5.543-4.5352zm129.98-92.199c-2.0156-1.5117-5.0391-1.5117-6.5508 0.50391-2.0156 2.0156-2.0156 4.5352-0.50391 6.5508 0 0 13.098 16.121 12.09 39.297l-5.0391-7.0547c-1.0078-1.5117-3.0234-2.5195-5.0391-2.0156s-3.5273 2.0156-4.0312 3.5273c-2.5195 10.078-6.0469 19.145-10.578 27.711-9.5742 4.5352-18.137 8.0625-27.711 10.578-5.543 1.5117-11.082 2.5195-17.129 3.0234-5.5391 1.0078-11.582 0.50391-18.133 1.0078 5.543 3.5273 11.586 6.0469 18.137 7.0547 6.5508 1.0078 13.098 0.50391 19.648-1.0078 6.0469-1.5117 11.586-4.0312 16.625-7.5586-3.5273 4.5352-7.5586 9.0703-12.09 13.098-6.5508 3.0234-13.098 5.0391-19.648 7.0547-5.543 1.5117-11.082 2.5195-17.129 3.0234-6.0469 1.0078-11.586 0.50391-18.137 1.0078 5.543 3.5273 11.586 6.0469 18.137 7.0547 3.5273 0.50391 7.0547 0.50391 10.078 0.50391-6.0469 3.0234-12.594 6.0469-19.648 8.5664-15.617-4.5352-29.727-12.09-30.23-15.617 0 0 0-0.50391 1.0078-1.0078 2.0156-1.5117 3.5273-3.0234 5.543-4.5352 13.098-10.578 23.176-19.145 23.176-26.703 0.50391-3.0234 1.0078-5.543 1.5117-8.5664 0.50391-4.5352 0.50391-8.5664 0-13.098-0.50391-4.0312-1.0078-8.5664-2.5195-12.594-1.0078-4.0312-3.0234-8.0625-5.0391-11.586 1.0078 4.0312 2.5195 8.0625 2.5195 12.09 0.50391 4.0312 0.50391 8.0625 0 12.09-0.50391 4.0312-1.5117 7.5586-2.5195 11.586 0 0.50391-0.50391 1.0078-0.50391 1.5117-4.5352-1.0078-10.578 2.0156-16.121 5.0391-4.5352 2.5195-10.078 5.0391-13.602 5.543-4.0312-0.50391-9.0703-3.0234-13.602-5.543-5.543-3.0234-11.586-6.0469-16.121-5.0391 0-0.50391-0.50391-1.0078-0.50391-1.5117-1.0078-3.5273-2.0156-7.5586-2.5195-11.586-0.50391-4.0312-0.50391-8.0625 0-12.09 0.50391-4.0312 1.5117-8.0625 2.5195-12.09-2.0156 3.5273-4.0312 7.5586-5.0391 11.586-1.5117 4.0312-2.0156 8.0625-2.5195 12.594-0.50391 4.0312-0.50391 8.5664 0 13.098 0.50391 3.0234 1.0078 5.543 1.5117 8.5664 0 7.5586 10.078 16.121 23.176 26.703 2.0156 1.5117 3.5273 3.0234 5.543 4.5352 1.0078 0.50391 1.0078 1.0078 1.0078 1.0078-0.50391 3.0234-13.602 10.578-30.73 15.617-9.5742-2.0156-18.137-5.0391-25.695-9.5742 5.0391 1.0078 10.078 1.0078 14.609 0 6.5508-1.0078 12.594-3.5273 18.137-7.0547-6.5508-0.50391-12.594 0-18.137-1.0078-6.0469-0.50391-11.586-1.5117-17.129-3.0234-7.5586-2.0156-14.609-4.5352-21.664-8.0625-3.0234-3.5273-6.0469-7.5586-9.0703-11.586 5.0391 3.0234 10.078 5.543 16.121 7.0547 6.5508 1.5117 13.098 2.0156 19.648 1.0078 6.5508-1.0078 12.594-3.5273 18.137-7.0547-6.5508-0.50391-12.594 0-18.137-1.0078-6.0469-0.50391-11.586-1.5117-17.129-3.0234-8.5664-2.0156-17.129-5.543-25.695-9.5742-4.5352-8.5664-8.0625-18.137-10.578-28.719-0.50391-2.0156-2.0156-3.5273-4.0312-3.5273h-1.0078c-1.5117 0-3.0234 1.0078-4.0312 2.0156l-5.0391 7.0547c-1.0078-23.176 12.09-39.297 12.09-39.297 1.5117-2.0156 1.5117-5.0391-0.50391-6.5508-2.0156-2.0156-4.5352-2.0156-6.5508-0.50391l-11.082 9.0703c7.0547-38.793 22.672-67.512 47.359-86.152 38.289-29.223 85.648-22.672 86.152-22.672h1.5117c0.50391 0 47.863-6.5508 86.152 22.672 24.688 18.641 40.305 47.359 47.359 86.152z"/>
  <path d="m346.18 215.7c-6.5508-4.0312-13.098-7.5586-21.16-8.5664-4.0312-0.50391-8.0625-1.0078-12.09 0-4.0312 1.0078-8.0625 2.5195-11.082 5.0391-6.5508 5.0391-10.078 12.09-12.594 18.641-2.0156 7.0547-3.0234 14.105-2.5195 21.16 2.0156-6.5508 4.5352-13.098 8.0625-18.641 3.0234-5.543 7.0547-11.082 12.09-13.602 5.0391-3.0234 10.578-4.0312 16.121-2.5195 4.0312 1.0078 8.0625 2.0156 12.09 4.0312-1.0078 1.0078-2.5195 2.0156-3.5273 3.0234-3.0234 2.5195-6.0469 4.5352-9.5742 6.0469-3.5273 1.5117-7.0547 2.5195-10.578 3.5273-4.0312 0.50391-7.5586 0-12.09-0.50391 3.5273 2.0156 7.5586 4.0312 12.09 4.5352 4.5352 0.50391 8.5664 0 13.098-1.0078 4.0312-1.0078 8.0625-3.0234 12.09-5.543 3.5273-2.5195 7.0547-5.0391 10.578-8.0625 0 0 0.50391-0.50391 0.50391-1.0078 1.5117-2.5195 0.50781-5.0391-1.5078-6.5508z"/>
  <path d="m212.17 212.17c-3.0234-2.5195-7.0547-4.0312-11.082-5.0391-4.0312-1.0078-8.0625-0.50391-12.09 0-7.5586 1.5117-14.609 4.5352-20.656 8.5664h-0.50391c-0.50391 0-0.50391 0.50391-0.50391 0.50391-1.5117 1.5117-1.5117 4.5352 0 6.5508 3.5273 3.5273 6.5508 6.0469 10.578 8.0625 3.5273 2.0156 7.5586 4.0312 12.09 5.543 4.0312 1.0078 8.5664 1.5117 13.098 1.0078 4.5352-0.50391 8.5664-2.0156 12.09-4.5352-4.0312 0.50391-8.0625 1.0078-12.09 0.50391-4.0312-0.50391-7.5586-1.5117-10.578-3.5273-3.5273-1.5117-6.5508-3.5273-9.5742-6.0469-1.5117-1.0078-2.5195-2.0156-3.5273-3.0234 4.0312-2.0156 8.0625-3.5273 12.09-4.0312 6.0469-1.0078 11.586-0.50391 16.121 2.5195 5.0391 3.0234 9.0703 8.0625 12.09 13.602 3.0234 5.543 5.543 12.09 8.0625 18.641 0.50391-7.0547-0.50391-14.105-2.5195-21.16-3.0156-6.5469-6.543-13.098-13.094-18.137z"/>
  <path d="m333.08 201.59c-10.078-9.0703-22.672-15.617-35.77-20.656-3.5273-1.0078-6.5508-2.0156-10.078-3.0234l-10.078-2.0156c-5.543-1.0078-11.082-1.5117-16.625-1.5117 0-4.0312 0-7.5586-0.50391-11.586 10.078 0.50391 20.152 1.5117 29.727 4.5352 6.0469 1.0078 11.586 3.5273 17.129 5.543 5.543 2.0156 11.082 5.0391 17.129 7.0547-4.5352-4.0312-9.5742-8.0625-14.609-11.586-5.543-3.0234-11.082-6.5508-17.129-8.5664-10.578-4.5352-22.168-6.5508-33.754-7.0547-0.50391-3.0234-1.0078-5.543-2.0156-8.5664 0 0 0-0.50391-0.50391-0.50391s-0.50391 0-0.50391 0.50391c-1.0078 2.5195-1.5117 5.543-2.0156 8.0625-6.0469 0-12.09 1.0078-18.137 2.0156l-9.5703 2.0117c-3.0234 1.0078-6.0469 2.0156-9.0703 3.0234-12.09 4.5352-23.176 11.586-31.738 20.152 11.082-5.543 22.672-10.078 34.258-13.098 10.578-3.0234 21.664-4.5352 32.746-4.5352-0.50391 4.0312-0.50391 7.5586-0.50391 11.586h-1.0078l-5.0391 0.50391c-3.5273 0.50391-7.0547 0.50391-10.578 1.0078l-10.078 2.0156c-3.5273 0.50391-6.5508 2.0156-10.078 3.0234-6.5508 2.0156-12.594 5.543-19.145 8.5664-6.0469 3.5273-11.586 7.5586-17.129 11.586 3.0234-1.0078 6.5508-2.5195 9.5742-3.5273 3.0234-1.0078 6.0469-3.0234 9.5742-3.5273 6.5508-2.0156 12.594-4.5352 19.145-5.543 11.586-3.0234 23.68-4.5352 35.77-4.5352 0.50391 3.5273 1.5117 7.0547 1.5117 10.578 0.50391 5.543 0 11.082-1.0078 16.625-1.0078 5.543-1.5117 11.082-2.0156 16.625-0.50391 5.543-1.0078 11.082-0.50391 16.625 0.50391 11.082 1.5117 22.672 5.0391 33.754 0 0 0 0.50391 0.50391 0.50391s0.50391 0 0.50391-0.50391c3.0234-11.082 4.5352-22.672 5.0391-33.754 0-5.543 0-11.082-0.50391-16.625-0.50391-5.543-1.0078-11.082-2.0156-16.625-1.0078-5.543-1.5117-11.082-1.0078-16.625 0-3.5273 1.0078-7.0547 1.5117-10.578 12.09 0 24.184 1.5117 35.77 4.5352 12.598 4.0312 25.191 8.5664 37.785 14.109z"/>
 </g>
</svg>
