<?xml version="1.0" encoding="UTF-8"?>
<svg width="100%" height="100%" version="1.1" viewBox="0 0 512 512" xmlns="http://www.w3.org/2000/svg">
 <path d="m472.57 256c0-36.863 9.2148-71.68 25.09-92.16 1.5352-2.5586 2.0469-5.6328 1.0234-8.1914-1.0234-2.5586-3.5859-4.6094-6.6562-5.1211-25.602-3.5859-56.832-21.504-82.945-47.617-26.109-26.109-44.031-57.344-47.613-82.941-0.51172-3.0703-2.5586-5.1211-5.1211-6.6562-2.5586-1.0234-5.6328-0.51172-8.1914 1.0234-20.48 15.871-55.297 25.09-92.16 25.09-37.375 0-71.68-9.2148-92.16-25.09-2.5586-1.5352-5.6328-2.0469-8.1914-1.0234-2.5586 1.0234-4.6094 3.5859-5.1211 6.6562-3.5859 25.602-21.504 56.832-47.617 82.945-26.109 26.109-57.344 44.031-82.941 47.613-3.0703 0.51172-5.1211 2.5586-6.6562 5.1211-1.0234 2.5586-0.51172 5.6328 1.0234 8.1914 15.871 20.48 25.09 55.297 25.09 92.16s-9.2188 71.68-25.09 92.16c-1.5352 2.5586-2.0469 5.6328-1.0234 8.1914 1.0234 2.5586 3.5859 4.6094 6.6562 5.1211 25.602 3.5859 56.832 21.504 82.945 47.617 26.113 26.113 44.031 57.344 47.617 82.945 0.51172 3.0703 2.5586 5.1211 5.1211 6.6562 1.0234 0.51172 2.0469 0.51172 3.0703 0.51172 1.5352 0 3.5859-0.51172 5.1211-1.5352 20.48-15.871 55.297-25.09 92.16-25.09 36.863 0 71.68 9.2148 92.16 25.09 2.5586 1.5352 5.6328 2.0469 8.1914 1.0234 2.5586-1.0234 4.6094-3.5859 5.1211-6.6562 3.5859-25.602 21.504-56.832 47.617-82.945 26.113-26.113 57.344-44.031 82.945-47.617 3.0703-0.51172 5.1211-2.5586 6.6562-5.1211 1.0234-2.5586 0.51172-5.6328-1.0234-8.1914-15.879-20.48-25.098-54.785-25.098-92.16zm-432.12 80.383c10.238-22.527 15.871-50.688 15.871-80.383s-5.6328-58.367-15.871-80.383l44.031 18.434c10.238 14.336 15.871 37.375 15.871 61.953 0 24.574-6.1445 47.617-15.871 61.953zm270.85-25.086c-6.1445 6.1445-11.266 12.801-15.359 19.969l-24.578-59.906 59.391 24.574c-6.6523 4.0977-13.309 8.707-19.453 15.363zm-15.359-130.05c4.0977 6.6562 8.7031 13.312 15.359 19.969 6.1445 6.1445 12.801 11.266 19.969 15.359l-59.906 24.066zm-39.938 53.25-24.574-59.902c15.359 4.0977 34.305 4.0977 49.664 0zm-15.359 6.1445-59.391-24.574c6.6562-4.0977 13.312-8.7031 19.969-15.359 6.1445-6.1445 11.266-12.801 15.359-19.969zm-6.1445 15.359-59.391 24.574c2.0469-7.6797 3.0703-15.871 3.0703-24.574s-1.0234-16.895-3.0703-24.574zm6.1445 15.359-24.574 59.391c-4.0977-6.6562-8.7031-13.312-15.359-19.969-6.1445-6.1445-12.801-11.266-19.969-15.359zm15.359 6.1445 24.574 59.902c-15.359-4.0977-34.305-4.0977-49.664 0zm21.504-21.504 59.391-24.574c-2.0469 7.6797-3.0703 15.871-3.0703 24.574s1.0234 16.895 3.0703 24.574zm75.266-48.641c-9.2148-2.0469-20.48-8.7031-29.695-17.922-9.2148-9.2148-15.871-20.48-17.922-29.695l18.945-45.566c6.6562 14.848 16.895 30.207 30.719 43.52 13.312 13.312 28.672 24.062 43.52 30.719zm-62.977-54.27c-7.6797 5.1211-20.48 8.1914-33.793 8.1914s-25.602-3.0703-33.793-8.1914l-18.43-45.57c15.359 5.6328 33.281 9.2148 52.734 9.2148 18.945 0 37.375-3.5859 52.734-9.2148zm-82.945 6.1406c-2.0469 9.2148-8.7031 20.48-17.922 29.695-9.2148 9.2148-20.48 15.871-29.695 17.922l-45.566-18.945c14.848-6.6562 30.207-16.895 43.52-30.719 13.312-13.312 24.062-28.672 30.719-43.52zm-98.816 44.547 45.566 18.945c5.1211 7.6797 8.1914 20.48 8.1914 33.793s-3.0703 26.113-8.1914 33.793l-45.566 18.945c5.6328-15.359 9.2148-33.281 9.2148-52.223 0-19.977-3.582-38.406-9.2148-53.254zm51.199 101.38c9.2148 2.0469 20.48 8.7031 29.695 17.922 9.2148 9.2148 15.871 20.48 17.922 29.695l-18.945 45.566c-6.6562-14.848-16.895-30.207-30.719-43.52-13.312-13.312-28.672-24.062-43.52-30.719zm62.977 53.758c7.6797-5.1211 20.48-8.1914 33.793-8.1914s25.602 3.0703 33.793 8.1914l18.945 45.566c-15.359-5.6328-33.281-9.2148-52.734-9.2148-18.945 0-37.375 3.5859-52.734 9.2148zm82.945-6.1406c2.0469-9.2148 8.7031-20.48 17.922-29.695 9.2148-9.2148 20.48-15.871 29.695-17.922l45.566 18.945c-14.848 6.6562-30.207 16.895-43.52 30.719-13.312 13.312-24.062 28.672-30.719 43.52zm53.758-62.977c-5.1211-7.6797-8.1914-20.48-8.1914-33.793s3.0703-25.602 8.1914-33.793l45.566-18.945c-5.6328 15.359-9.2148 33.281-9.2148 52.734 0 18.945 3.5859 37.375 9.2148 52.223zm68.609 28.16c-10.238-14.336-15.871-37.375-15.871-61.953 0-24.574 6.1445-47.617 15.871-61.953l44.031-18.434c-10.238 22.527-15.871 50.688-15.871 80.383 0 29.695 5.6328 58.367 15.871 80.383zm-30.207-203.27c20.992 20.992 45.055 36.863 68.098 45.566l-44.031 18.434c-17.406-3.0703-37.887-14.848-55.297-32.77-17.406-17.406-29.695-37.887-32.77-55.297l18.434-44.031c8.7031 23.043 24.574 47.105 45.566 68.098zm-60.93-74.238-18.434 44.031c-14.336 10.238-37.375 15.871-61.953 15.871-24.574 0-47.617-6.1445-61.953-15.871l-18.434-44.031c22.527 10.238 50.688 15.871 80.383 15.871 29.703-0.51172 58.375-6.1445 80.391-15.871zm-221.7 74.238c20.992-20.992 36.863-45.055 45.566-68.098l18.434 44.031c-3.0703 17.406-14.848 37.887-32.77 55.297-17.406 17.406-37.887 29.695-55.297 32.77l-44.031-18.434c23.043-8.7031 47.105-24.574 68.098-45.566zm0 282.62c-20.992-20.992-45.055-36.863-68.098-45.566l44.031-18.434c17.406 3.0703 37.887 14.848 55.297 32.77 17.406 17.406 29.695 37.887 32.77 55.297l-18.434 44.031c-8.7031-23.043-24.574-47.105-45.566-68.098zm60.93 74.238 18.434-44.031c14.336-10.238 37.375-15.871 61.953-15.871 24.574 0 47.617 6.1445 61.953 15.871l18.434 44.031c-22.527-10.238-50.688-15.871-80.383-15.871-29.703 0.51172-58.375 6.1445-80.391 15.871zm221.7-74.238c-20.992 20.992-36.863 45.055-45.566 68.098l-18.434-44.031c3.0703-17.406 14.848-37.887 32.77-55.297 17.406-17.406 37.887-29.695 55.297-32.77l44.031 18.434c-23.043 8.7031-47.105 24.574-68.098 45.566z" fill="current"/>
</svg>
