<?xml version="1.0" encoding="UTF-8"?>
<svg width="48px" height="48px" version="1.1" viewBox="0 0 512 512" xmlns="http://www.w3.org/2000/svg">
 <path d="m201.91 0.65234v0.03125c-43.441-0.003906-79.035 35.465-79.031 78.906 0.027344 13.801 5.6992 26.617 12.531 38.5-14.129 16.523-25.504 35.773-25.531 57.75 0.019532 17.133 7.0938 33.035 16.062 47.5-18.672 20.012-32.902 44.383-32.938 72.031 0 54.488 40.469 99.73 92.844 107.56v75.156h-106.53c-0.55078-0.027344-1.1016-0.027344-1.6562 0-5.625 0.41406-10.617 3.7578-13.145 8.8008-2.5273 5.043-2.2188 11.047 0.81641 15.801 3.0352 4.7578 8.3477 7.5664 13.984 7.3984h232c3.9766 1.6758 8.4609 1.6758 12.438 0h109.06c4.3047 0.097656 8.4688-1.5469 11.547-4.5586 3.0781-3.0117 4.8125-7.1367 4.8125-11.441 0-4.3047-1.7344-8.4297-4.8125-11.441-3.0781-3.0117-7.2422-4.6562-11.547-4.5586h-99.344v-17.375c51.641-8.4609 91.277-53.371 91.281-107.34-0.023437-27.707-14.328-52.121-33.062-72.156 8.957-14.449 16.035-30.262 16.062-47.375-0.042968-21.965-11.375-41.242-25.5-57.75 6.8359-11.887 12.602-24.598 12.625-38.406v-0.089844c0.007813-43.445-35.555-78.914-79-78.906-1.7227 0-3.418 0.16797-5.125 0.27734 1.2773 6.6914 2.0312 13.582 2.0312 20.625v0.1875 0.097656c-0.042968 13.734-3.5938 25.238-7.9688 35.688 11.273 16.867 20.922 36.098 20.969 60.219v0.125c-0.03125 17.117-5.0469 31.566-11.156 44.812 15.281 20.918 28.012 44.98 28.031 74.625v0.03125c0 64.203-43.754 118.81-102.88 135.53 16.617 16.32 38.242 27.09 61.812 30.281v16.906h-83.75v-75.156c52.426-7.7695 92.812-53.02 92.812-107.56-0.019531-27.668-14.258-52.004-32.938-72.031 8.9961-14.469 16.031-30.352 16.062-47.5-0.042968-21.973-11.367-41.238-25.5-57.75 6.8359-11.883 12.473-24.566 12.5-38.375v-0.15625c0.003907-43.441-35.434-78.91-78.875-78.906z" fill="current"/>
</svg>
