<?xml version="1.0" encoding="UTF-8"?>
<svg width="100%" height="100%" version="1.1" viewBox="0 0 512 512" xmlns="http://www.w3.org/2000/svg">
 <g fill="current">
  <path d="m256 0c-33.617 0-66.906 6.6211-97.965 19.488-31.062 12.863-59.281 31.719-83.055 55.492-23.773 23.773-42.629 51.992-55.492 83.055-12.867 31.059-19.488 64.348-19.488 97.965 0 67.895 26.973 133.01 74.98 181.02 48.012 48.008 113.12 74.98 181.02 74.98s133.01-26.973 181.02-74.98c48.008-48.008 74.98-113.12 74.98-181.02s-26.973-133.01-74.98-181.02c-48.008-48.008-113.12-74.98-181.02-74.98zm0 28.91c29.492 0 58.695 5.875 85.941 17.289 27.246 11.41 52.004 28.137 72.855 49.227 20.855 21.086 37.395 46.121 48.684 73.672 11.285 27.551 17.094 57.082 17.094 86.902 0 60.227-23.66 117.99-65.777 160.57-42.113 42.59-99.234 66.512-158.8 66.516-29.488 0-58.691-5.875-85.941-17.289-27.246-11.41-52-28.137-72.855-49.227-20.852-21.086-37.395-46.121-48.68-73.672-11.289-27.551-17.098-57.078-17.098-86.902 0-29.82 5.8086-59.352 17.094-86.902 11.289-27.551 27.828-52.586 48.684-73.672 20.852-21.09 45.609-37.816 72.855-49.23 27.25-11.41 56.453-17.285 85.941-17.285z"/>
  <path d="m297.31 280.43c-0.50391 2.2656-1.5117 4.0312-1.5117 5.793 0 4.0312-2.5195 4.2812-6.5508 2.2656-4.0312-2.0156-1.5117 3.2734-2.2656 8.3125-0.75391 5.0391-7.0547 9.8242-8.8164 13.098-2.0156 3.2734-5.0391 0.25-5.2891-3.2734-0.25-3.5273 2.7695-10.328-1.2578-17.383-3.2734-6.0469-12.594-3.7773-15.367-3.0234-2.7695-0.75391-12.09-2.7695-15.367 3.0234-4.0312 7.0547-1.0078 13.855-1.2578 17.383s-3.5273 6.5508-5.2891 3.2734c-2.0156-3.2734-8.0625-8.0625-8.8164-13.098-0.75391-5.0391 1.7617-10.078-2.2656-8.3125-4.0312 2.0156-6.5508 1.5117-6.5508-2.2656 0-1.7617-1.0078-3.5273-1.5117-5.793-1.5117-0.25-2.7695-0.25-3.2734 0.25-1.0078 1.2578-2.2656 6.2969-1.0078 12.09 1.5117 5.793 3.2734 6.8008 7.0547 11.586 3.7773 4.7852 6.8008 3.2734 9.3203 10.078 2.5195 7.0547 1.5117 8.5664 6.0469 10.328 4.5352 1.7617 5.0391 2.2656 9.5742 1.7617s4.5352 0.25 7.8086 0.75391c1.5117 0.25 2.5195 0 3.0234 0 0.75391-0.25 1.2578-0.25 1.7617 0 0.25 0 0.50391 0.25 0.75391 0.50391 0.25-0.25 0.50391-0.50391 0.75391-0.50391 0.50391-0.25 1.0078-0.25 1.7617 0 0.75391 0 1.5117 0.25 3.0234 0 3.2734-0.25 3.2734-1.0078 7.8086-0.75391 4.5352 0.50391 5.0391 0 9.5742-1.7617 4.5352-1.7617 3.5273-3.2734 6.0469-10.328 2.5195-7.0547 5.793-5.2891 9.3203-10.078 3.7773-4.7852 5.543-5.793 7.0547-11.586 1.5117-5.793 0-10.832-1.0078-12.09-0.51172-0.75391-1.7695-0.5-3.2812-0.25z"/>
  <path d="m374.65 250.46c-4.0312-6.0469-5.2891-6.8008-5.543-12.09-0.25-5.543 0.50391-8.5664-4.5352-14.359-5.0391-5.793-6.2969-8.5664-5.543-16.121 0.75391-7.5586-0.25-18.391-3.0234-21.914 0 0-1.0078 6.8008-2.2656 8.3125-1.2578 1.7617-1.5117-9.3203-2.2656-12.09-1.0078-2.7695-2.2656-6.5508-5.0391-8.0625-2.7695-1.7617-3.7773-6.2969-3.7773-6.2969s10.832-51.137-15.367-62.473c0 0-6.2969-2.2656-11.336 9.0703-5.0391 11.336-21.41 18.391-25.695 24.184-4.2812 5.793-6.5508 6.5508-7.0547 6.5508-0.75391 0-17.887-4.2812-27.207-4.2812-9.3203 0-26.449 4.2812-27.207 4.2812-0.75391 0-2.7695-0.75391-7.0547-6.5508-4.2812-5.793-20.656-12.848-25.695-24.184-5.0391-11.336-11.336-9.0703-11.336-9.0703-25.945 11.336-15.367 62.473-15.367 62.473s-1.0078 4.5352-3.7773 6.2969c-2.7695 1.7617-4.0312 5.2891-5.0391 8.0625-1.0078 2.7695-1.2578 13.855-2.2656 12.09-1.2578-1.7617-2.2656-8.3125-2.2656-8.3125-2.7695 3.5273-3.7773 14.359-3.0234 21.914 0.75391 7.5586-0.50391 10.578-5.543 16.121-5.0391 5.793-4.2812 8.8164-4.5352 14.359-0.25 5.543-1.5117 6.2969-5.543 12.09-4.0312 6.0469-9.5742 17.129-9.5742 17.129s2.2656 1.0078 4.2812 1.7617 3.5273 2.2656 5.543 3.0234c2.0156 0.75391 2.2656 2.0156 4.0312 3.0234 1.7617 1.2578 0 2.2656-1.0078 4.5352-1.0078 2.2656 1.5117 3.5273 4.5352 5.0391 3.0234 1.5117 3.5273 2.7695 5.0391 6.0469 1.5117 3.0234 1.7617 6.5508 5.0391 7.5586 3.2734 1.2578 2.2656 3.2734 2.7695 6.5508 0.50391 3.0234 2.2656 4.0312 6.2969 4.7852 3.7773 0.75391 2.0156 2.2656 2.2656 5.793s3.7773 4.2812 9.0703 4.0312c5.2891-0.25 2.2656 1.7617 10.328 9.3203 8.0625 7.5586 20.402 17.633 32.496 33 11.84 15.367 29.727 45.344 37.785 45.344 8.0625 0 25.695-29.977 37.785-45.344 11.84-15.367 24.434-25.191 32.496-33 8.0625-7.5586 5.0391-9.5742 10.328-9.3203 5.2891 0.25 8.8164-0.50391 9.0703-4.0312 0.25-3.5273-1.7617-5.0391 2.2656-5.793 3.7773-0.75391 5.793-1.7617 6.2969-4.7852s-0.50391-5.2891 2.7695-6.5508c3.2734-1.2578 3.5273-4.5352 5.0391-7.5586s2.0156-4.5352 5.0391-6.0469c3.0234-1.5117 5.543-2.7695 4.5352-5.0391-1.0078-2.2656-2.5195-3.2734-1.0078-4.5352 1.7617-1.2578 2.2656-2.5195 4.0312-3.0234 2.0156-0.75391 3.5273-2.5195 5.543-3.0234 2.0156-0.75391 4.2812-1.7617 4.2812-1.7617 0.007812 0.003906-6.0352-11.332-10.066-17.129zm-58.945-113.36c6.2969-9.8242 6.5508-12.344 10.832-16.879s5.793-1.2578 10.832 6.8008c5.0391 8.0625 2.0156 11.082 2.2656 22.168 0.50391 11.336-2.5195 11.586-4.7852 14.359-2.2656 2.5195-3.7773-5.793-2.5195-10.832s-0.50391-13.098-0.50391-13.098c-0.50391-5.0391-5.0391-5.0391-7.3047-3.5273s-3.0234 8.0625-4.5352 13.602c-1.5117 5.543 1.7617 3.7773 1.5117 9.3203s-3.7773 7.0547-10.328 4.5352-5.543-5.0391-6.2969-10.328c-1.0078-5.2891 4.5312-6.5508 10.832-16.121zm-140.82-10.078c5.0391-8.0625 6.5508-11.336 10.832-6.8008s4.5352 7.0547 10.832 16.879c6.2969 9.8242 11.586 11.082 11.082 16.121-0.75391 5.2891 0.25 7.5586-6.2969 10.328-6.5508 2.5195-10.078 1.0078-10.328-4.5352s2.7695-3.7773 1.5117-9.3203c-1.5117-5.543-2.2656-12.09-4.5352-13.602-2.2656-1.5117-6.8008-1.5117-7.3047 3.5273 0 0-1.7617 8.0625-0.50391 13.098 1.2578 5.0391-0.50391 13.352-2.5195 10.832-2.2656-2.5195-5.2891-3.0234-4.7852-14.359 0-11.336-3.0234-14.105 2.0156-22.168zm164.24 126.21c-2.2656 1.5117-0.75391 4.2812 0.50391 10.578 1.0078 6.2969-2.2656 8.5664-4.2812 11.336-2.0156 2.7695-2.2656-1.0078-4.5352-1.0078-2.0156-0.25-0.25 5.543-0.50391 9.3203-0.25 3.7773-3.0234 1.5117-5.0391 1.2578-2.0156-0.25-1.2578 1.2578-2.0156 4.7852-0.75391 3.5273-0.75391 1.2578-3.0234 3.2734-2.2656 2.0156-0.75391 3.7773-0.75391 7.5586-0.25 4.0312-0.25 4.2812-0.75391 11.336-0.25 7.0547-3.2734 8.8164-3.7773 12.594-0.50391 3.7773-3.5273 7.0547-5.0391 5.0391-1.5117-2.0156-1.7617-6.8008-2.2656-10.578-0.75391-3.7773-2.2656 5.793-3.0234 9.0703-0.75391 3.2734-3.7773 1.0078-3.7773-0.75391 0-2.0156-1.7617 1.5117-2.7695 3.7773-1.0078 2.2656-2.7695 1.7617-3.2734-0.50391-0.25-2.2656-2.5195 0.75391-3.5273 1.7617-1.0078 1.0078-2.2656 3.2734-4.2812 3.2734-2.0156 0-1.0078 3.5273-2.0156 6.0469-0.75391 2.5195-1.7617 1.5117-3.7773 0.75391-2.0156-1.0078-1.2578 2.0156-2.2656 5.0391-1.0078 3.2734-4.0312 2.5195-5.2891 1.0078-1.2578-1.5117-1.5117 6.2969-2.5195 9.8242-1.0078 3.2734-2.2656-0.50391-5.793 6.5508-3.2734 7.0547-2.7695 8.3125-4.7852 15.367-1.2578 3.7773-3.2734 5.0391-5.0391 5.543-1.7617-0.50391-4.0312-1.7617-5.0391-5.543-2.0156-7.0547-1.5117-8.3125-4.7852-15.367-3.2734-7.0547-4.7852-3.2734-5.793-6.5508-1.0078-3.2734-1.2578-11.082-2.5195-9.8242-1.2578 1.5117-4.2812 2.0156-5.2891-1.0078-1.0078-3.2734-0.25-6.0469-2.2656-5.0391-2.0156 1.0078-2.7695 2.0156-3.7773-0.75391-0.75391-2.5195 0.25-6.0469-2.0156-6.0469-2.0156 0-3.2734-2.2656-4.2812-3.2734-1.0078-1.0078-3.2734-4.0312-3.5273-1.7617-0.25 2.2656-2.2656 2.7695-3.2734 0.50391-1.0078-2.2656-2.7695-5.793-2.7695-3.7773 0 2.0156-2.7695 4.0312-3.7773 0.75391-0.75391-3.2734-2.2656-12.848-3.0234-9.0703-0.75391 3.7773-1.0078 8.3125-2.2656 10.578-1.5117 2.0156-4.5352-1.2578-5.0391-5.0391-0.50391-3.7773-3.5273-5.2891-3.7773-12.594-0.25-7.0547-0.50391-7.5586-0.75391-11.336-0.25-4.0312 1.5117-5.793-0.75391-7.5586-2.2656-2.0156-2.2656 0.25-3.0234-3.2734-0.75391-3.5273 0-5.0391-2.0156-4.7852-2.0156 0.25-4.7852 2.5195-5.0391-1.2578-0.25-3.7773 1.5117-9.5742-0.50391-9.3203-2.0156 0.25-2.2656 4.0312-4.5352 1.0078-2.0156-2.7695-5.2891-5.2891-4.2812-11.336 1.0078-6.2969 2.7695-9.0703 0.50391-10.578-2.2656-1.5117-5.0391-3.2734-3.2734-6.5508 1.7617-3.2734-1.0078-6.2969 3.5273-11.082s4.5352-3.7773 3.7773-10.578c-0.75391-6.8008-2.5195-6.2969-0.25-10.078 2.2656-3.7773 1.5117-2.2656 2.7695-6.2969 1.0078-4.0312 4.5352-5.2891 4.7852-0.75391 0 0 1.0078 8.0625 0.50391 13.098-0.75391 5.0391-0.75391 3.7773 1.2578 7.0547 2.0156 3.2734 1.7617 1.0078 3.0234 7.5586 1.2578 6.5508 4.0312 2.5195 7.0547 8.0625 3.0234 5.2891 1.0078 4.7852 5.2891 7.0547 4.2812 2.2656 5.793-0.50391 9.3203 5.0391 3.5273 5.543 3.7773 2.0156 4.2812 8.8164 0.50391 4.0312 0.50391 6.2969 1.0078 7.5586 0.50391-1.2578 1.2578-2.7695 2.2656-4.2812 6.8008-10.078 10.328-12.848 9.5742-17.633-0.75391-5.0391 0.25-5.793-4.5352-7.0547-4.7852-1.5117-4.0312-4.5352-7.3047-2.7695-3.2734 1.5117-3.5273 1.7617-4.7852 1.5117 0 0 1.0078-2.7695-1.5117-3.0234-2.5195-0.25-5.0391-2.0156-3.2734-3.0234 1.5117-1.0078-1.5117-4.7852-4.0312-5.793-2.5195-1.0078-4.5352-5.2891-3.7773-7.8086 0.75391-2.5195 1.7617-4.5352 4.5352-2.2656 2.7695 2.0156 5.793-0.75391 7.8086 3.7773 2.0156 4.5352 4.0312 6.2969 9.0703 7.0547 2.2656 0.25 3.7773 0 5.0391 0 1.5117-0.25 2.5195-0.50391 3.7773 0 2.0156 1.0078 3.7773 5.0391 4.5352 2.2656 0.75391-2.7695 0.25-4.0312-0.75391-5.2891-1.0078-1.5117-3.2734-2.0156-1.7617-5.0391 1.5117-2.7695 1.2578-5.0391-2.2656-8.5664-3.5273-3.7773-7.3047-8.0625-10.578-6.5508-3.2734 1.5117-2.7695 4.2812-7.5586 4.5352-4.5352 0.25-11.082 2.2656-12.344-2.7695 0 0 0-7.8086 4.2812-7.5586s5.2891 2.2656 7.5586-1.0078c2.2656-3.2734 8.5664-10.578 16.625-7.5586 8.0625 3.2734 14.863 12.344 14.863 18.641 0.25 6.2969 1.2578 10.328 1.5117 13.098 0.25 2.7695 2.0156 5.793-2.0156 13.098-3.7773 7.3047-2.2656 8.5664-2.2656 13.098 0 4.5352-1.0078 11.082-2.2656 18.137-1.2578 7.0547-0.50391 4.0312 4.0312 5.543 4.5352 1.5117 6.2969-0.25 9.5742-0.50391 2.2656 0 4.5352-0.50391 5.793-0.75391 1.2578 0.25 3.2734 0.50391 5.793 0.75391 3.2734 0.25 5.0391 2.0156 9.5742 0.50391 4.5352-1.5117 5.2891 1.5117 4.0312-5.543-1.2578-7.0547-2.2656-13.602-2.2656-18.137s1.5117-5.793-2.2656-13.098c-3.7773-7.3047-2.2656-10.578-2.0156-13.098 0.25-2.7695 1.5117-6.8008 1.5117-13.098 0.25-6.2969 6.8008-15.367 14.863-18.641 8.0625-3.2734 14.359 4.0312 16.625 7.5586 2.2656 3.2734 3.2734 1.0078 7.5586 1.0078 4.2812-0.25 4.2812 7.5586 4.2812 7.5586-1.2578 5.2891-7.5586 3.0234-12.344 2.7695-4.5352-0.25-4.2812-3.0234-7.5586-4.5352-3.2734-1.5117-6.8008 2.7695-10.578 6.5508-3.7773 3.7773-4.0312 5.793-2.2656 8.5664 1.5117 2.7695-0.75391 3.5273-1.7617 5.0391-1.0078 1.5117-1.5117 2.7695-0.75391 5.2891 0.75391 2.7695 2.5195-1.2578 4.5352-2.2656 1.0078-0.50391 2.2656-0.25 3.7773 0 1.2578 0.25 3.0234 0.50391 5.0391 0 5.0391-0.75391 7.0547-2.5195 9.0703-7.0547 2.0156-4.5352 5.0391-1.5117 7.8086-3.7773 2.7695-2.0156 4.0312-0.25 4.5352 2.2656 0.75391 2.5195-1.2578 6.8008-3.7773 7.8086-2.5195 1.0078-5.543 4.5352-4.0312 5.793 1.5117 1.0078-0.75391 2.7695-3.2734 3.0234-2.5195 0.25-1.5117 3.0234-1.5117 3.0234-1.2578 0.25-1.5117 0-4.7852-1.5117s-2.5195 1.5117-7.3047 2.7695c-4.7852 1.5117-3.7773 2.2656-4.5352 7.0547-0.75391 5.0391 2.7695 7.5586 9.5742 17.633 1.0078 1.5117 1.7617 2.7695 2.2656 4.2812 0.50391-1.5117 0.75391-3.5273 1.0078-7.5586 0.50391-6.8008 0.75391-3.2734 4.2812-8.8164 3.5273-5.543 5.0391-2.7695 9.3203-5.0391 4.2812-2.2656 2.2656-1.7617 5.2891-7.0547 3.0234-5.2891 5.793-1.5117 7.0547-8.0625 1.2578-6.5508 1.0078-4.2812 3.0234-7.5586 2.0156-3.2734 2.0156-2.0156 1.2578-7.0547-0.75391-5.0391 0.50391-13.098 0.50391-13.098 0.25-4.5352 3.7773-3.2734 4.7852 0.75391 1.0078 4.0312 0.25 2.7695 2.7695 6.2969 2.2656 3.7773 0.75391 3.2734-0.25 10.078-0.75391 6.8008-1.0078 5.793 3.7773 10.578 4.5352 4.7852 1.7617 7.8086 3.5273 11.082 3.2266 3.2734 0.45312 5.0391-1.8125 6.5508zm-123.18-34.008c2.5195-0.75391 5.2891-1.0078 7.0547 0.50391 1.7617 1.5117 2.5195 4.2812 1.5117 6.0469-1.0078 2.0156-3.7773 2.0156-6.2969 1.0078s-2.7695-0.25-4.0312-3.0234c0.25 0-0.50781-3.7812 1.7617-4.5352zm81.617 4.5352c-1.2617 2.7695-1.2617 2.0156-3.7812 3.0234-2.5195 1.0078-5.2891 0.75391-6.2969-1.0078-1.0078-2.0156-0.50391-4.5352 1.5117-6.0469 1.7617-1.5117 4.7852-1.2578 7.0547-0.50391 2.2656 0.75391 1.5117 4.5352 1.5117 4.5352z"/>
 </g>
</svg>
